<?xml version="1.0" encoding="UTF-8" standalone="no"?>
<!DOCTYPE svg PUBLIC "-//W3C//DTD SVG 1.1//EN" "http://www.w3.org/Graphics/SVG/1.1/DTD/svg11.dtd">
<svg width="100%" height="100%" viewBox="0 0 500 500" version="1.1" xmlns="http://www.w3.org/2000/svg" xmlns:xlink="http://www.w3.org/1999/xlink" xml:space="preserve" xmlns:serif="http://www.serif.com/" style="fill-rule:evenodd;clip-rule:evenodd;stroke-linejoin:round;stroke-miterlimit:2;">
    <g id="Artboard1" transform="matrix(1.04943,0,0,1.09154,-66.6939,-69.4945)">
        <g transform="matrix(1.34544,0,0,1.34544,-104.245,-101.11)" fill="currentColor">
            <g transform="matrix(0.952895,0,0,0.916135,63.5523,63.6663)">
                <circle cx="250" cy="250" r="50"/>
            </g>
            <g transform="matrix(0.895429,0.313336,-0.325909,0.860885,159.019,37.85)">
                <path d="M160,174.865C160,170.923 158.434,167.142 155.646,164.354C152.858,161.566 149.077,160 145.135,160C135.908,160 124.092,160 114.865,160C110.923,160 107.142,161.566 104.354,164.354C101.566,167.142 100,170.923 100,174.865C100,214.966 100,325.034 100,365.135C100,369.077 101.566,372.858 104.354,375.646C107.142,378.434 110.923,380 114.865,380C124.092,380 135.908,380 145.135,380C149.077,380 152.858,378.434 155.646,375.646C158.434,372.858 160,369.077 160,365.135C160,325.034 160,214.966 160,174.865Z"/>
            </g>
            <g transform="matrix(-0.895429,-0.313336,0.325909,-0.860885,444.534,547.55)">
                <path d="M160,174.865C160,170.923 158.434,167.142 155.646,164.354C152.858,161.566 149.077,160 145.135,160C135.908,160 124.092,160 114.865,160C110.923,160 107.142,161.566 104.354,164.354C101.566,167.142 100,170.923 100,174.865C100,214.966 100,325.034 100,365.135C100,369.077 101.566,372.858 104.354,375.646C107.142,378.434 110.923,380 114.865,380C124.092,380 135.908,380 145.135,380C149.077,380 152.858,378.434 155.646,375.646C158.434,372.858 160,369.077 160,365.135C160,325.034 160,214.966 160,174.865Z"/>
            </g>
        </g>
    </g>
</svg>
